/* XPM */
static char *_719f10d5b93436cd140624213508d20PRBCIO9GUgeUBf6D[] = {
/* columns rows colors chars-per-pixel */
"80 80 15 1 ",
"  c #85A643",
". c #9FB747",
"X c #346B45",
"o c #46945A",
"O c #7ED868",
"+ c #5EB25E",
"@ c #7E9E3F",
"# c #1E4537",
"$ c #24724F",
"% c #1C2F29",
"& c #215742",
"* c #96B146",
"= c #352F28",
"- c #584326",
"; c #886D32",
/* pixels */
"                                                                                ",
"                                                                                ",
"                                                                                ",
"                                                                                ",
"                                                                                ",
"                                             .....                              ",
"                                             .....                              ",
"                                             .....                              ",
"                                             .....                              ",
"                                             .....                              ",
"                         XXXXXXXXXXXXXXXXXXXXXXXXXXXXXX                         ",
"                         XXXXXXXXXXXXXXXXXXXXXXXXXXXXXX                         ",
"                         XXXXXXXXXXXXXXXXXXXXXXXXXXXXXX                         ",
"                         XXXXXXXXXXXXXXXXXXXXXXXXXXXXXX                         ",
"                         XXXXXXXXXXXXXXXXXXXXXXXXXXXXXX                         ",
"                    XXXXXoooooOOOOOOOOOOOOOOOOOOOOoooooXXXXX..........          ",
"                    XXXXXoooooOOOOOOOOOOOOOOOOOOOOoooooXXXXX..........          ",
"                    XXXXXoooooOOOOOOOOOOOOOOOOOOOOoooooXXXXX..........          ",
"                    XXXXXoooooOOOOOOOOOOOOOOOOOOOOoooooXXXXX..........          ",
"                    XXXXXoooooOOOOOOOOOOOOOOOOOOOOoooooXXXXX..........          ",
"               XXXXXooooo+++++OOOOOOOOOOOOOOOOOOOO+++++oooooXXXXX@@@@@          ",
"               XXXXXooooo+++++OOOOOOOOOOOOOOOOOOOO+++++oooooXXXXX@@@@@          ",
"               XXXXXooooo+++++OOOOOOOOOOOOOOOOOOOO+++++oooooXXXXX@@@@@          ",
"               XXXXXooooo+++++OOOOOOOOOOOOOOOOOOOO+++++oooooXXXXX@@@@@          ",
"               XXXXXooooo+++++OOOOOOOOOOOOOOOOOOOO+++++oooooXXXXX@@@@@          ",
"               XXXXXooooo+++++OOOOOOOOOOOOOOOOOOOO+++++oooooXXXXX               ",
"               XXXXXooooo+++++OOOOOOOOOOOOOOOOOOOO+++++oooooXXXXX               ",
"               XXXXXooooo+++++OOOOOOOOOOOOOOOOOOOO+++++oooooXXXXX               ",
"               XXXXXooooo+++++OOOOOOOOOOOOOOOOOOOO+++++oooooXXXXX               ",
"               XXXXXooooo+++++OOOOOOOOOOOOOOOOOOOO+++++oooooXXXXX               ",
"               XXXXXooooo++++++++++++++++++++++++++++++oooooXXXXX               ",
"               XXXXXooooo++++++++++++++++++++++++++++++oooooXXXXX               ",
"               XXXXXooooo++++++++++++++++++++++++++++++oooooXXXXX               ",
"               XXXXXooooo++++++++++++++++++++++++++++++oooooXXXXX               ",
"               XXXXXooooo++++++++++++++++++++++++++++++oooooXXXXX               ",
"               #####oooooooooo++++++++++++++++++++oooooooooo#####               ",
"               #####oooooooooo++++++++++++++++++++oooooooooo#####               ",
"               #####oooooooooo++++++++++++++++++++oooooooooo#####               ",
"               #####oooooooooo++++++++++++++++++++oooooooooo#####               ",
"               #####oooooooooo++++++++++++++++++++oooooooooo#####               ",
"               #####$$$$$oooooooooooooooooooooooooooooo$$$$$#####               ",
"               #####$$$$$oooooooooooooooooooooooooooooo$$$$$#####               ",
"               #####$$$$$oooooooooooooooooooooooooooooo$$$$$#####               ",
"               #####$$$$$oooooooooooooooooooooooooooooo$$$$$#####               ",
"               #####$$$$$oooooooooooooooooooooooooooooo$$$$$#####               ",
"               %%%%%&&&&&$$$$$oooooooooooooooooooo$$$$$&&&&&%%%%%@@@@@          ",
"               %%%%%&&&&&$$$$$oooooooooooooooooooo$$$$$&&&&&%%%%%@@@@@          ",
"               %%%%%&&&&&$$$$$oooooooooooooooooooo$$$$$&&&&&%%%%%@@@@@          ",
"               %%%%%&&&&&$$$$$oooooooooooooooooooo$$$$$&&&&&%%%%%@@@@@          ",
"               %%%%%&&&&&$$$$$oooooooooooooooooooo$$$$$&&&&&%%%%%@@@@@          ",
"               %%%%%&&&&&&&&&&$$$$$$$$$$$$$$$$$$$$&&&&&&&&&&%%%%%..........     ",
"               %%%%%&&&&&&&&&&$$$$$$$$$$$$$$$$$$$$&&&&&&&&&&%%%%%..........     ",
"               %%%%%&&&&&&&&&&$$$$$$$$$$$$$$$$$$$$&&&&&&&&&&%%%%%..........     ",
"               %%%%%&&&&&&&&&&$$$$$$$$$$$$$$$$$$$$&&&&&&&&&&%%%%%..........     ",
"               %%%%%&&&&&&&&&&$$$$$$$$$$$$$$$$$$$$&&&&&&&&&&%%%%%..........     ",
"               @@@@@%%%%%&&&&&&&&&&&&&&&&&&&&&&&&&&&&&&%%%%%*****.....@@@@@     ",
"               @@@@@%%%%%&&&&&&&&&&&&&&&&&&&&&&&&&&&&&&%%%%%*****.....@@@@@     ",
"               @@@@@%%%%%&&&&&&&&&&&&&&&&&&&&&&&&&&&&&&%%%%%*****.....@@@@@     ",
"               @@@@@%%%%%&&&&&&&&&&&&&&&&&&&&&&&&&&&&&&%%%%%*****.....@@@@@     ",
"               @@@@@%%%%%&&&&&&&&&&&&&&&&&&&&&&&&&&&&&&%%%%%*****.....@@@@@     ",
"          ..........@@@@@==========-----;;;;;==========                         ",
"          ..........@@@@@==========-----;;;;;==========                         ",
"          ..........@@@@@==========-----;;;;;==========                         ",
"          ..........@@@@@==========-----;;;;;==========                         ",
"          ..........@@@@@==========-----;;;;;==========                         ",
"     @@@@@@@@@@**********=====-----;;;;;;;;;;-----=====                         ",
"     @@@@@@@@@@**********=====-----;;;;;;;;;;-----=====                         ",
"     @@@@@@@@@@**********=====-----;;;;;;;;;;-----=====                         ",
"     @@@@@@@@@@**********=====-----;;;;;;;;;;-----=====                         ",
"     @@@@@@@@@@**********=====-----;;;;;;;;;;-----=====                         ",
"                              =====;;;;;;;;;;=====                              ",
"                              =====;;;;;;;;;;=====                              ",
"                              =====;;;;;;;;;;=====                              ",
"                              =====;;;;;;;;;;=====                              ",
"                              =====;;;;;;;;;;=====                              ",
"                                                                                ",
"                                                                                ",
"                                                                                ",
"                                                                                ",
"                                                                                "
};
