/* XPM */
static char *a7714380661d4333e69fffe992dfe185WhA5cYUWCcG3fWcK[] = {
/* columns rows colors chars-per-pixel */
"80 80 23 1 ",
"  c #85A643",
". c #1B1B19",
"X c #3D2313",
"o c #272725",
"O c #9E9E96",
"+ c #85581F",
"@ c #B2812E",
"# c #D7D7D7",
"$ c #C1C1C1",
"% c gray94",
"& c #9FB747",
"* c #452E25",
"= c #383835",
"- c #767676",
"; c #BEBEBB",
": c #4D2B17",
"> c #5F321B",
", c #6D863A",
"< c #72481B",
"1 c #81933D",
"2 c #7E9E3F",
"3 c #678037",
"4 c #7A8F3C",
/* pixels */
"                                                                                ",
"                                                                                ",
"                                                                                ",
"                                                                                ",
"                                                                                ",
"                    .....XXXXXXXXXXXXXXXXXXXXXXXXXXXXXX.....                    ",
"                    .....XXXXXXXXXXXXXXXXXXXXXXXXXXXXXX.....                    ",
"                    .....XXXXXXXXXXXXXXXXXXXXXXXXXXXXXX.....                    ",
"                    .....XXXXXXXXXXXXXXXXXXXXXXXXXXXXXX.....                    ",
"                    .....XXXXXXXXXXXXXXXXXXXXXXXXXXXXXX.....                    ",
"               oooooOOOOO+++++@@@@@@@@@@@@@@@@@@@@+++++OOOOOooooo               ",
"               oooooOOOOO+++++@@@@@@@@@@@@@@@@@@@@+++++OOOOOooooo               ",
"               oooooOOOOO+++++@@@@@@@@@@@@@@@@@@@@+++++OOOOOooooo               ",
"               oooooOOOOO+++++@@@@@@@@@@@@@@@@@@@@+++++OOOOOooooo               ",
"               oooooOOOOO+++++@@@@@@@@@@@@@@@@@@@@+++++OOOOOooooo               ",
"               ooooo#####@@@@@$$$$$%%%%%%%%%%$$$$$@@@@@#####ooooo&&&&&          ",
"               ooooo#####@@@@@$$$$$%%%%%%%%%%$$$$$@@@@@#####ooooo&&&&&          ",
"               ooooo#####@@@@@$$$$$%%%%%%%%%%$$$$$@@@@@#####ooooo&&&&&          ",
"               ooooo#####@@@@@$$$$$%%%%%%%%%%$$$$$@@@@@#####ooooo&&&&&          ",
"               ooooo#####@@@@@$$$$$%%%%%%%%%%$$$$$@@@@@#####ooooo&&&&&          ",
"          ooooo%%%%%%%%%%#####%%%%%**********%%%%%#####%%%%%%%%%%ooooo          ",
"          ooooo%%%%%%%%%%#####%%%%%**********%%%%%#####%%%%%%%%%%ooooo          ",
"          ooooo%%%%%%%%%%#####%%%%%**********%%%%%#####%%%%%%%%%%ooooo          ",
"          ooooo%%%%%%%%%%#####%%%%%**********%%%%%#####%%%%%%%%%%ooooo          ",
"          ooooo%%%%%%%%%%#####%%%%%**********%%%%%#####%%%%%%%%%%ooooo          ",
"          oooooOOOOOOOOOOOOOOO$$$$$%%%%%%%%%%$$$$$OOOOOOOOOOOOOOOooooo          ",
"          oooooOOOOOOOOOOOOOOO$$$$$%%%%%%%%%%$$$$$OOOOOOOOOOOOOOOooooo          ",
"          oooooOOOOOOOOOOOOOOO$$$$$%%%%%%%%%%$$$$$OOOOOOOOOOOOOOOooooo          ",
"          oooooOOOOOOOOOOOOOOO$$$$$%%%%%%%%%%$$$$$OOOOOOOOOOOOOOOooooo          ",
"          oooooOOOOOOOOOOOOOOO$$$$$%%%%%%%%%%$$$$$OOOOOOOOOOOOOOOooooo          ",
"          =====-----..........OOOOOOOOOOOOOOOOOOOO..........-----=====          ",
"          =====-----..........OOOOOOOOOOOOOOOOOOOO..........-----=====          ",
"          =====-----..........OOOOOOOOOOOOOOOOOOOO..........-----=====          ",
"          =====-----..........OOOOOOOOOOOOOOOOOOOO..........-----=====          ",
"          =====-----..........OOOOOOOOOOOOOOOOOOOO..........-----=====          ",
"          =====;;;;;........................................;;;;;=====          ",
"          =====;;;;;........................................;;;;;=====          ",
"          =====;;;;;........................................;;;;;=====          ",
"          =====;;;;;........................................;;;;;=====          ",
"          =====;;;;;........................................;;;;;=====          ",
"          =====%%%%%%%%%%%%%%%%%%%%%%%%%%%%%%%%%%%%%%%%%%%%%%%%%%=====          ",
"          =====%%%%%%%%%%%%%%%%%%%%%%%%%%%%%%%%%%%%%%%%%%%%%%%%%%=====          ",
"          =====%%%%%%%%%%%%%%%%%%%%%%%%%%%%%%%%%%%%%%%%%%%%%%%%%%=====          ",
"          =====%%%%%%%%%%%%%%%%%%%%%%%%%%%%%%%%%%%%%%%%%%%%%%%%%%=====          ",
"          =====%%%%%%%%%%%%%%%%%%%%%%%%%%%%%%%%%%%%%%%%%%%%%%%%%%=====          ",
"          oooooOOOOOOOOOOOOOOOOOOOOOOOOOOOOOOOOOOOOOOOOOOOOOOOOOOooooo          ",
"          oooooOOOOOOOOOOOOOOOOOOOOOOOOOOOOOOOOOOOOOOOOOOOOOOOOOOooooo          ",
"          oooooOOOOOOOOOOOOOOOOOOOOOOOOOOOOOOOOOOOOOOOOOOOOOOOOOOooooo          ",
"          oooooOOOOOOOOOOOOOOOOOOOOOOOOOOOOOOOOOOOOOOOOOOOOOOOOOOooooo          ",
"          oooooOOOOOOOOOOOOOOOOOOOOOOOOOOOOOOOOOOOOOOOOOOOOOOOOOOooooo          ",
"          ..........-----:::::>>>>>>>>>>>>>>>>>>>>:::::-----..........&&&&&     ",
"          ..........-----:::::>>>>>>>>>>>>>>>>>>>>:::::-----..........&&&&&     ",
"          ..........-----:::::>>>>>>>>>>>>>>>>>>>>:::::-----..........&&&&&     ",
"          ..........-----:::::>>>>>>>>>>>>>>>>>>>>:::::-----..........&&&&&     ",
"          ..........-----:::::>>>>>>>>>>>>>>>>>>>>:::::-----..........&&&&&     ",
"          ,,,,,.....OOOOO>>>>><<<<<<<<<<<<<<<<<<<<>>>>>OOOOO.....1111122222     ",
"          ,,,,,.....OOOOO>>>>><<<<<<<<<<<<<<<<<<<<>>>>>OOOOO.....1111122222     ",
"          ,,,,,.....OOOOO>>>>><<<<<<<<<<<<<<<<<<<<>>>>>OOOOO.....1111122222     ",
"          ,,,,,.....OOOOO>>>>><<<<<<<<<<<<<<<<<<<<>>>>>OOOOO.....1111122222     ",
"          ,,,,,.....OOOOO>>>>><<<<<<<<<<<<<<<<<<<<>>>>>OOOOO.....1111122222     ",
"          11111.....;;;;;:::::>>>>>>>>>>>>>>>>>>>>:::::;;;;;.....,,,,,          ",
"          11111.....;;;;;:::::>>>>>>>>>>>>>>>>>>>>:::::;;;;;.....,,,,,          ",
"          11111.....;;;;;:::::>>>>>>>>>>>>>>>>>>>>:::::;;;;;.....,,,,,          ",
"          11111.....;;;;;:::::>>>>>>>>>>>>>>>>>>>>:::::;;;;;.....,,,,,          ",
"          11111.....;;;;;:::::>>>>>>>>>>>>>>>>>>>>:::::;;;;;.....,,,,,          ",
"     22222333334444444444,,,,,,,,,,,,,,,,,,,,,,,,,,,,,,,,,,,,,,,,,,,,,          ",
"     22222333334444444444,,,,,,,,,,,,,,,,,,,,,,,,,,,,,,,,,,,,,,,,,,,,,          ",
"     22222333334444444444,,,,,,,,,,,,,,,,,,,,,,,,,,,,,,,,,,,,,,,,,,,,,          ",
"     22222333334444444444,,,,,,,,,,,,,,,,,,,,,,,,,,,,,,,,,,,,,,,,,,,,,          ",
"     22222333334444444444,,,,,,,,,,,,,,,,,,,,,,,,,,,,,,,,,,,,,,,,,,,,,          ",
"               ,,,,,,,,,,,,,,,,,,,,,,,,,,,,,,,,,,,,,,,,,,,,,,,,,,               ",
"               ,,,,,,,,,,,,,,,,,,,,,,,,,,,,,,,,,,,,,,,,,,,,,,,,,,               ",
"               ,,,,,,,,,,,,,,,,,,,,,,,,,,,,,,,,,,,,,,,,,,,,,,,,,,               ",
"               ,,,,,,,,,,,,,,,,,,,,,,,,,,,,,,,,,,,,,,,,,,,,,,,,,,               ",
"               ,,,,,,,,,,,,,,,,,,,,,,,,,,,,,,,,,,,,,,,,,,,,,,,,,,               ",
"                                                                                ",
"                                                                                ",
"                                                                                ",
"                                                                                ",
"                                                                                "
};
