/* XPM */
static char *_3f00b83e56f4238acf571ba6a07903c0mMDrA5qxF013ZwR[] = {
/* columns rows colors chars-per-pixel */
"80 80 24 1 ",
"  c #85A643",
". c #9FB747",
"X c #1B1B19",
"o c #3D2313",
"O c #272725",
"+ c #9E9E96",
"@ c #85581F",
"# c #B2812E",
"$ c #D7D7D7",
"% c #D0A052",
"& c gray94",
"* c #383835",
"= c #BEBEBB",
"- c #72481B",
"; c #C1C1C1",
": c #452E25",
"> c #767676",
", c #4D2B17",
"< c #6D863A",
"1 c #5F321B",
"2 c #81933D",
"3 c #7E9E3F",
"4 c #678037",
"5 c #7A8F3C",
/* pixels */
"                                                                                ",
"                                                                                ",
"                                                                                ",
"                                                                                ",
"                                                                                ",
"                                             .....                              ",
"                                             .....                              ",
"                                             .....                              ",
"                                             .....                              ",
"                                             .....                              ",
"                    XXXXXooooooooooooooooooooooooooooooXXXXX                    ",
"                    XXXXXooooooooooooooooooooooooooooooXXXXX                    ",
"                    XXXXXooooooooooooooooooooooooooooooXXXXX                    ",
"                    XXXXXooooooooooooooooooooooooooooooXXXXX                    ",
"                    XXXXXooooooooooooooooooooooooooooooXXXXX                    ",
"               OOOOO+++++@@@@@####################@@@@@+++++OOOOO.....          ",
"               OOOOO+++++@@@@@####################@@@@@+++++OOOOO.....          ",
"               OOOOO+++++@@@@@####################@@@@@+++++OOOOO.....          ",
"               OOOOO+++++@@@@@####################@@@@@+++++OOOOO.....          ",
"               OOOOO+++++@@@@@####################@@@@@+++++OOOOO.....          ",
"          OOOOOOOOOO$$$$$#####%%%%%%%%%%%%%%%%%%%%#####$$$$$OOOOOOOOOO          ",
"          OOOOOOOOOO$$$$$#####%%%%%%%%%%%%%%%%%%%%#####$$$$$OOOOOOOOOO          ",
"          OOOOOOOOOO$$$$$#####%%%%%%%%%%%%%%%%%%%%#####$$$$$OOOOOOOOOO          ",
"          OOOOOOOOOO$$$$$#####%%%%%%%%%%%%%%%%%%%%#####$$$$$OOOOOOOOOO          ",
"          OOOOOOOOOO$$$$$#####%%%%%%%%%%%%%%%%%%%%#####$$$$$OOOOOOOOOO          ",
"          OOOOO+++++&&&&&@@@@@####################@@@@@&&&&&+++++OOOOO          ",
"          OOOOO+++++&&&&&@@@@@####################@@@@@&&&&&+++++OOOOO          ",
"          OOOOO+++++&&&&&@@@@@####################@@@@@&&&&&+++++OOOOO          ",
"          OOOOO+++++&&&&&@@@@@####################@@@@@&&&&&+++++OOOOO          ",
"          OOOOO+++++&&&&&@@@@@####################@@@@@&&&&&+++++OOOOO          ",
"          *****=====$$$$$-----@@@@@@@@@@@@@@@@@@@@-----$$$$$=====*****          ",
"          *****=====$$$$$-----@@@@@@@@@@@@@@@@@@@@-----$$$$$=====*****          ",
"          *****=====$$$$$-----@@@@@@@@@@@@@@@@@@@@-----$$$$$=====*****          ",
"          *****=====$$$$$-----@@@@@@@@@@@@@@@@@@@@-----$$$$$=====*****          ",
"          *****=====$$$$$-----@@@@@@@@@@@@@@@@@@@@-----$$$$$=====*****          ",
"          *****$$$$$+++++-----&&&&&&&&&&&&&&&&&&&&-----+++++$$$$$*****          ",
"          *****$$$$$+++++-----&&&&&&&&&&&&&&&&&&&&-----+++++$$$$$*****          ",
"          *****$$$$$+++++-----&&&&&&&&&&&&&&&&&&&&-----+++++$$$$$*****          ",
"          *****$$$$$+++++-----&&&&&&&&&&&&&&&&&&&&-----+++++$$$$$*****          ",
"          *****$$$$$+++++-----&&&&&&&&&&&&&&&&&&&&-----+++++$$$$$*****          ",
"          *****&&&&&&&&&&&&&&&;;;;;;;;;;;;;;;;;;;;&&&&&&&&&&&&&&&*****          ",
"          *****&&&&&&&&&&&&&&&;;;;;;;;;;;;;;;;;;;;&&&&&&&&&&&&&&&*****          ",
"          *****&&&&&&&&&&&&&&&;;;;;;;;;;;;;;;;;;;;&&&&&&&&&&&&&&&*****          ",
"          *****&&&&&&&&&&&&&&&;;;;;;;;;;;;;;;;;;;;&&&&&&&&&&&&&&&*****          ",
"          *****&&&&&&&&&&&&&&&;;;;;;;;;;;;;;;;;;;;&&&&&&&&&&&&&&&*****          ",
"          OOOOO+++++++++++++++;;;;;::::::::::;;;;;+++++++++++++++OOOOO          ",
"          OOOOO+++++++++++++++;;;;;::::::::::;;;;;+++++++++++++++OOOOO          ",
"          OOOOO+++++++++++++++;;;;;::::::::::;;;;;+++++++++++++++OOOOO          ",
"          OOOOO+++++++++++++++;;;;;::::::::::;;;;;+++++++++++++++OOOOO          ",
"          OOOOO+++++++++++++++;;;;;::::::::::;;;;;+++++++++++++++OOOOO          ",
"          XXXXXXXXXX>>>>>,,,,,++++++++++++++++++++,,,,,>>>>>XXXXXXXXXX.....     ",
"          XXXXXXXXXX>>>>>,,,,,++++++++++++++++++++,,,,,>>>>>XXXXXXXXXX.....     ",
"          XXXXXXXXXX>>>>>,,,,,++++++++++++++++++++,,,,,>>>>>XXXXXXXXXX.....     ",
"          XXXXXXXXXX>>>>>,,,,,++++++++++++++++++++,,,,,>>>>>XXXXXXXXXX.....     ",
"          XXXXXXXXXX>>>>>,,,,,++++++++++++++++++++,,,,,>>>>>XXXXXXXXXX.....     ",
"          <<<<<XXXXX+++++11111--------------------11111+++++XXXXX2222233333     ",
"          <<<<<XXXXX+++++11111--------------------11111+++++XXXXX2222233333     ",
"          <<<<<XXXXX+++++11111--------------------11111+++++XXXXX2222233333     ",
"          <<<<<XXXXX+++++11111--------------------11111+++++XXXXX2222233333     ",
"          <<<<<XXXXX+++++11111--------------------11111+++++XXXXX2222233333     ",
"          22222XXXXX=====,,,,,11111111111111111111,,,,,=====XXXXX<<<<<          ",
"          22222XXXXX=====,,,,,11111111111111111111,,,,,=====XXXXX<<<<<          ",
"          22222XXXXX=====,,,,,11111111111111111111,,,,,=====XXXXX<<<<<          ",
"          22222XXXXX=====,,,,,11111111111111111111,,,,,=====XXXXX<<<<<          ",
"          22222XXXXX=====,,,,,11111111111111111111,,,,,=====XXXXX<<<<<          ",
"     33333444445555555555<<<<<<<<<<<<<<<<<<<<<<<<<<<<<<<<<<<<<<<<<<<<<          ",
"     33333444445555555555<<<<<<<<<<<<<<<<<<<<<<<<<<<<<<<<<<<<<<<<<<<<<          ",
"     33333444445555555555<<<<<<<<<<<<<<<<<<<<<<<<<<<<<<<<<<<<<<<<<<<<<          ",
"     33333444445555555555<<<<<<<<<<<<<<<<<<<<<<<<<<<<<<<<<<<<<<<<<<<<<          ",
"     33333444445555555555<<<<<<<<<<<<<<<<<<<<<<<<<<<<<<<<<<<<<<<<<<<<<          ",
"               <<<<<<<<<<<<<<<<<<<<<<<<<<<<<<<<<<<<<<<<<<<<<<<<<<               ",
"               <<<<<<<<<<<<<<<<<<<<<<<<<<<<<<<<<<<<<<<<<<<<<<<<<<               ",
"               <<<<<<<<<<<<<<<<<<<<<<<<<<<<<<<<<<<<<<<<<<<<<<<<<<               ",
"               <<<<<<<<<<<<<<<<<<<<<<<<<<<<<<<<<<<<<<<<<<<<<<<<<<               ",
"               <<<<<<<<<<<<<<<<<<<<<<<<<<<<<<<<<<<<<<<<<<<<<<<<<<               ",
"                                                                                ",
"                                                                                ",
"                                                                                ",
"                                                                                ",
"                                                                                "
};
