/* XPM */
static char *result[] = {
/* columns rows colors chars-per-pixel */
"80 80 11 1 ",
"  c #85A643",
". c #9FB747",
"X c #7E9E3F",
"o c #134C4C",
"O c #5AC54F",
"+ c #33984B",
"@ c #96B146",
"# c #FEAE34",
"$ c #F77622",
"% c #612A0A",
"& c #724B3B",
/* pixels */
"                                                                                ",
"                                                                                ",
"                                                                                ",
"                                                                                ",
"                                                                                ",
"                                             .....                              ",
"                                             .....                              ",
"                                             .....                              ",
"                                             .....                              ",
"                                             .....                              ",
"                                        XXXXXoooooooooo                         ",
"                                        XXXXXoooooooooo                         ",
"                                        XXXXXoooooooooo                         ",
"                                        XXXXXoooooooooo                         ",
"                                        XXXXXoooooooooo                         ",
"               oooooooooo          .....oooooOOOOOOOOOOooooo..........          ",
"               oooooooooo          .....oooooOOOOOOOOOOooooo..........          ",
"               oooooooooo          .....oooooOOOOOOOOOOooooo..........          ",
"               oooooooooo          .....oooooOOOOOOOOOOooooo..........          ",
"               oooooooooo          .....oooooOOOOOOOOOOooooo..........          ",
"          oooooOOOOOOOOOOoooooXXXXXoooooOOOOOOOOOO+++++ooooo@@@@@XXXXX          ",
"          oooooOOOOOOOOOOoooooXXXXXoooooOOOOOOOOOO+++++ooooo@@@@@XXXXX          ",
"          oooooOOOOOOOOOOoooooXXXXXoooooOOOOOOOOOO+++++ooooo@@@@@XXXXX          ",
"          oooooOOOOOOOOOOoooooXXXXXoooooOOOOOOOOOO+++++ooooo@@@@@XXXXX          ",
"          oooooOOOOOOOOOOoooooXXXXXoooooOOOOOOOOOO+++++ooooo@@@@@XXXXX          ",
"          ooooo+++++OOOOOOOOOOooooooooooOOOOO+++++ooooo                         ",
"          ooooo+++++OOOOOOOOOOooooooooooOOOOO+++++ooooo                         ",
"          ooooo+++++OOOOOOOOOOooooooooooOOOOO+++++ooooo                         ",
"          ooooo+++++OOOOOOOOOOooooooooooOOOOO+++++ooooo                         ",
"          ooooo+++++OOOOOOOOOOooooooooooOOOOO+++++ooooo                         ",
"               ooooo+++++OOOOOoooooOOOOO++++++++++ooooo                         ",
"               ooooo+++++OOOOOoooooOOOOO++++++++++ooooo                         ",
"               ooooo+++++OOOOOoooooOOOOO++++++++++ooooo                         ",
"               ooooo+++++OOOOOoooooOOOOO++++++++++ooooo                         ",
"               ooooo+++++OOOOOoooooOOOOO++++++++++ooooo                         ",
"               ooooo+++++OOOOOOOOOO++++++++++ooooo                              ",
"               ooooo+++++OOOOOOOOOO++++++++++ooooo                              ",
"               ooooo+++++OOOOOOOOOO++++++++++ooooo                              ",
"               ooooo+++++OOOOOOOOOO++++++++++ooooo                              ",
"               ooooo+++++OOOOOOOOOO++++++++++ooooo                              ",
"                    ooooo+++++++++++++++ooooo               .....               ",
"                    ooooo+++++++++++++++ooooo               .....               ",
"                    ooooo+++++++++++++++ooooo               .....               ",
"                    ooooo+++++++++++++++ooooo               .....               ",
"                    ooooo+++++++++++++++ooooo               .....               ",
"                         ooooo##########$$$$$%%%%%     ..........XXXXX          ",
"                         ooooo##########$$$$$%%%%%     ..........XXXXX          ",
"                         ooooo##########$$$$$%%%%%     ..........XXXXX          ",
"                         ooooo##########$$$$$%%%%%     ..........XXXXX          ",
"                         ooooo##########$$$$$%%%%%     ..........XXXXX          ",
"                    %%%%%####################$$$$$%%%%%@@@@@XXXXX..........     ",
"                    %%%%%####################$$$$$%%%%%@@@@@XXXXX..........     ",
"                    %%%%%####################$$$$$%%%%%@@@@@XXXXX..........     ",
"                    %%%%%####################$$$$$%%%%%@@@@@XXXXX..........     ",
"                    %%%%%####################$$$$$%%%%%@@@@@XXXXX..........     ",
"               XXXXX%%%%%$$$$$##########$$$$$$$$$$%%%%%&&&&&@@@@@.....XXXXX     ",
"               XXXXX%%%%%$$$$$##########$$$$$$$$$$%%%%%&&&&&@@@@@.....XXXXX     ",
"               XXXXX%%%%%$$$$$##########$$$$$$$$$$%%%%%&&&&&@@@@@.....XXXXX     ",
"               XXXXX%%%%%$$$$$##########$$$$$$$$$$%%%%%&&&&&@@@@@.....XXXXX     ",
"               XXXXX%%%%%$$$$$##########$$$$$$$$$$%%%%%&&&&&@@@@@.....XXXXX     ",
"          ..........&&&&&&&&&&$$$$$$$$$$$$$$$&&&&&&&&&&&&&&&                    ",
"          ..........&&&&&&&&&&$$$$$$$$$$$$$$$&&&&&&&&&&&&&&&                    ",
"          ..........&&&&&&&&&&$$$$$$$$$$$$$$$&&&&&&&&&&&&&&&                    ",
"          ..........&&&&&&&&&&$$$$$$$$$$$$$$$&&&&&&&&&&&&&&&                    ",
"          ..........&&&&&&&&&&$$$$$$$$$$$$$$$&&&&&&&&&&&&&&&                    ",
"     XXXXXXXXXX@@@@@@@@@@&&&&&&&&&&&&&&&&&&&&&&&&&&&&&&                         ",
"     XXXXXXXXXX@@@@@@@@@@&&&&&&&&&&&&&&&&&&&&&&&&&&&&&&                         ",
"     XXXXXXXXXX@@@@@@@@@@&&&&&&&&&&&&&&&&&&&&&&&&&&&&&&                         ",
"     XXXXXXXXXX@@@@@@@@@@&&&&&&&&&&&&&&&&&&&&&&&&&&&&&&                         ",
"     XXXXXXXXXX@@@@@@@@@@&&&&&&&&&&&&&&&&&&&&&&&&&&&&&&                         ",
"                                                                                ",
"                                                                                ",
"                                                                                ",
"                                                                                ",
"                                                                                ",
"                                                                                ",
"                                                                                ",
"                                                                                ",
"                                                                                ",
"                                                                                "
};
