/* XPM */
static char *_db06d4121024da884c0a7420d0c7593FAhY0Ic7qwL9eCJP[] = {
/* columns rows colors chars-per-pixel */
"80 80 4 1 ",
"  c #85A643",
". c #9FB747",
"X c #7E9E3F",
"o c #96B146",
/* pixels */
"                                                                                ",
"                                                                                ",
"                                                                                ",
"                                                                                ",
"                                                                                ",
"                                             .....                              ",
"                                             .....                              ",
"                                             .....                              ",
"                                             .....                              ",
"                                             .....                              ",
"                                        XXXXX..........                         ",
"                                        XXXXX..........                         ",
"                                        XXXXX..........                         ",
"                                        XXXXX..........                         ",
"                                        XXXXX..........                         ",
"                                   .....oooooXXXXXooooo     ..........          ",
"                                   .....oooooXXXXXooooo     ..........          ",
"                                   .....oooooXXXXXooooo     ..........          ",
"                                   .....oooooXXXXXooooo     ..........          ",
"                                   .....oooooXXXXXooooo     ..........          ",
"                              XXXXXXXXXXooooo          ooooooooooXXXXX          ",
"                              XXXXXXXXXXooooo          ooooooooooXXXXX          ",
"                              XXXXXXXXXXooooo          ooooooooooXXXXX          ",
"                              XXXXXXXXXXooooo          ooooooooooXXXXX          ",
"                              XXXXXXXXXXooooo          ooooooooooXXXXX          ",
"                                                                                ",
"                                                                                ",
"                                                                                ",
"                                                                                ",
"                                                                                ",
"                                                                                ",
"                                                                                ",
"                                                                                ",
"                                                                                ",
"                                                                                ",
"                                                                                ",
"                                                                                ",
"                                                                                ",
"                                                                                ",
"                                                                                ",
"                                                            .....               ",
"                                                            .....               ",
"                                                            .....               ",
"                                                            .....               ",
"                                                            .....               ",
"                                                       ..........XXXXX          ",
"                                                       ..........XXXXX          ",
"                                                       ..........XXXXX          ",
"                                                       ..........XXXXX          ",
"                                                       ..........XXXXX          ",
"                    .....                         XXXXXoooooXXXXX..........     ",
"                    .....                         XXXXXoooooXXXXX..........     ",
"                    .....                         XXXXXoooooXXXXX..........     ",
"                    .....                         XXXXXoooooXXXXX..........     ",
"                    .....                         XXXXXoooooXXXXX..........     ",
"               XXXXX.....ooooo                              ooooo.....XXXXX     ",
"               XXXXX.....ooooo                              ooooo.....XXXXX     ",
"               XXXXX.....ooooo                              ooooo.....XXXXX     ",
"               XXXXX.....ooooo                              ooooo.....XXXXX     ",
"               XXXXX.....ooooo                              ooooo.....XXXXX     ",
"          ..........XXXXXooooo                                                  ",
"          ..........XXXXXooooo                                                  ",
"          ..........XXXXXooooo                                                  ",
"          ..........XXXXXooooo                                                  ",
"          ..........XXXXXooooo                                                  ",
"     XXXXXXXXXXoooooooooo                                                       ",
"     XXXXXXXXXXoooooooooo                                                       ",
"     XXXXXXXXXXoooooooooo                                                       ",
"     XXXXXXXXXXoooooooooo                                                       ",
"     XXXXXXXXXXoooooooooo                                                       ",
"                                                                                ",
"                                                                                ",
"                                                                                ",
"                                                                                ",
"                                                                                ",
"                                                                                ",
"                                                                                ",
"                                                                                ",
"                                                                                ",
"                                                                                "
};
