/* XPM */
static char *fa9d2fd92a9e4cb9a60a316a00716c84rOgjiUy1L2lwUjVS[] = {
/* columns rows colors chars-per-pixel */
"80 80 24 1 ",
"  c #85A643",
". c #011B16",
"X c #007966",
"o c #00B49D",
"O c #433416",
"+ c #9FB747",
"@ c #002E27",
"# c #866114",
"$ c #004F43",
"% c #002E25",
"& c #6E6C68",
"* c #C8C1B3",
"= c #004F41",
"- c #BFB7A6",
"; c #004F42",
": c #002E26",
"> c #040404",
", c gray91",
"< c #F7D099",
"1 c #AA5A33",
"2 c #F6A954",
"3 c #7E9E3F",
"4 c #84482A",
"5 c #D97F40",
/* pixels */
"                                   ..........                                   ",
"                                   ..........                                   ",
"                                   ..........                                   ",
"                                   ..........                                   ",
"                                   ..........                                   ",
"                              .....XXXXXXXXXX.....                              ",
"                              .....XXXXXXXXXX.....                              ",
"                              .....XXXXXXXXXX.....                              ",
"                              .....XXXXXXXXXX.....                              ",
"                              .....XXXXXXXXXX.....                              ",
"                         .....XXXXXooooooooooXXXXX.....                         ",
"                         .....XXXXXooooooooooXXXXX.....                         ",
"                         .....XXXXXooooooooooXXXXX.....                         ",
"                         .....XXXXXooooooooooXXXXX.....                         ",
"                         .....XXXXXooooooooooXXXXX.....                         ",
"               ..........OOOOOXXXXXooooooooooXXXXXOOOOO..........+++++          ",
"               ..........OOOOOXXXXXooooooooooXXXXXOOOOO..........+++++          ",
"               ..........OOOOOXXXXXooooooooooXXXXXOOOOO..........+++++          ",
"               ..........OOOOOXXXXXooooooooooXXXXXOOOOO..........+++++          ",
"               ..........OOOOOXXXXXooooooooooXXXXXOOOOO..........+++++          ",
"          .....@@@@@@@@@@#####$$$$$XXXXXXXXXX$$$$$#####@@@@@@@@@@.....          ",
"          .....@@@@@@@@@@#####$$$$$XXXXXXXXXX$$$$$#####@@@@@@@@@@.....          ",
"          .....@@@@@@@@@@#####$$$$$XXXXXXXXXX$$$$$#####@@@@@@@@@@.....          ",
"          .....@@@@@@@@@@#####$$$$$XXXXXXXXXX$$$$$#####@@@@@@@@@@.....          ",
"          .....@@@@@@@@@@#####$$$$$XXXXXXXXXX$$$$$#####@@@@@@@@@@.....          ",
"     .....%@@@@@@@@@$$$$$OOOOO&&&&&**********&&&&&OOOOO$$$$$@@@@@@@@@@.....     ",
"     .....%@@@@@@@@@$$$$$OOOOO&&&&&**********&&&&&OOOOO$$$$$@@@@@@@@@@.....     ",
"     .....%@@@@@@@@@$$$$$OOOOO&&&&&**********&&&&&OOOOO$$$$$@@@@@@@@@@.....     ",
"     .....%@@@@@@@@@$$$$$OOOOO&&&&&**********&&&&&OOOOO$$$$$@@@@@@@@@@.....     ",
"     .....%@@@@@@@@@$$$$$OOOOO&&&&&**********&&&&&OOOOO$$$$$@@@@@@@@@@.....     ",
"     .....=$$$$$$$$$$$$$$$$$$$-----OOOOOOOOOO-----$$$$$$$$$$$$$$$$$$$$.....     ",
"     .....=$$$$$$$$$$$$$$$$$$$-----OOOOOOOOOO-----$$$$$$$$$$$$$$$$$$$$.....     ",
"     .....=$$$$$$$$$$$$$$$$$$$-----OOOOOOOOOO-----$$$$$$$$$$$$$$$$$$$$.....     ",
"     .....=$$$$$$$$$$$$$$$$$$$-----OOOOOOOOOO-----$$$$$$$$$$$$$$$$$$$$.....     ",
"     .....=$$$$$$$$$$$$$$$$$$$-----OOOOOOOOOO-----$$$$$$$$$$$$$$$$$$$$.....     ",
"     .....=$$$$XXXXXXXXXXXXXXX&&&&&----------&&&&&XXXXXXXXXXXXXXX$$$$$.....     ",
"     .....;$$$$XXXXXXXXXXXXXXX&&&&&----------&&&&&XXXXXXXXXXXXXXX$$$$$.....     ",
"     .....;$$$$XXXXXXXXXXXXXXX&&&&&----------&&&&&XXXXXXXXXXXXXXX$$$$$.....     ",
"     .....;$$$$XXXXXXXXXXXXXXX&&&&&----------&&&&&XXXXXXXXXXXXXXX$$$$$.....     ",
"     .....;$$$$XXXXXXXXXXXXXXX&&&&&----------&&&&&XXXXXXXXXXXXXXX$$$$$.....     ",
"     .....%@@@@$$$$$XXXXXooooooooooooooooooooooooooooooXXXXX$$$$$@@@@@.....     ",
"     .....:@@@@$$$$$XXXXXooooooooooooooooooooooooooooooXXXXX$$$$$@@@@@.....     ",
"     .....@@@@@$$$$$XXXXXooooooooooooooooooooooooooooooXXXXX$$$$$@@@@@.....     ",
"     .....@@@@@$$$$$XXXXXooooooooooooooooooooooooooooooXXXXX$$$$$@@@@@.....     ",
"     .....@@@@@$$$$$XXXXXooooooooooooooooooooooooooooooXXXXX$$$$$@@@@@.....     ",
"          >>>>>@@@@@@@@@@$$$$$$$$$$$$$$$$$$$$$$$$$$$$$$@@@@@@@@@@.....          ",
"          >>>>>@@@@@@@@@@$$$$$$$$$$$$$$$$$$$$$$$$$$$$$$@@@@@@@@@@.....          ",
"          >>>>>@@@@@@@@@@$$$$$$$$$$$$$$$$$$$$$$$$$$$$$$@@@@@@@@@@.....          ",
"          >>>>>@@@@@@@@@@$$$$$$$$$$$$$$$$$$$$$$$$$$$$$$@@@@@@@@@@.....          ",
"          >>>>>@@@@@@@@@@$$$$$$$$$$$$$$$$$$$$$$$$$$$$$$@@@@@@@@@@.....          ",
"               ..........,,,,,>>>>><<<<<<<<<<>>>>>,,,,,..........++++++++++     ",
"               ..........,,,,,>>>>><<<<<<<<<<>>>>>,,,,,..........++++++++++     ",
"               ..........,,,,,>>>>><<<<<<<<<<>>>>>,,,,,..........++++++++++     ",
"               ..........,,,,,>>>>><<<<<<<<<<>>>>>,,,,,..........++++++++++     ",
"               ..........,,,,,>>>>><<<<<<<<<<>>>>>,,,,,..........++++++++++     ",
"               .....XXXXX111112222222222222222222211111XXXXX.....+++++33333     ",
"               .....XXXXX111112222222222222222222211111XXXXX.....+++++33333     ",
"               .....XXXXX111112222222222222222222211111XXXXX.....+++++33333     ",
"               .....XXXXX111112222222222222222222211111XXXXX.....+++++33333     ",
"               .....XXXXX111112222222222222222222211111XXXXX.....+++++33333     ",
"          44444XXXXXXXXXXXXXXX44444444444444444444XXXXXXXXXXXXXXX44444          ",
"          44444XXXXXXXXXXXXXXX44444444444444444444XXXXXXXXXXXXXXX44444          ",
"          44444XXXXXXXXXXXXXXX44444444444444444444XXXXXXXXXXXXXXX44444          ",
"          44444XXXXXXXXXXXXXXX44444444444444444444XXXXXXXXXXXXXXX44444          ",
"          44444XXXXXXXXXXXXXXX44444444444444444444XXXXXXXXXXXXXXX44444          ",
"     444442222222222.....$$$$$XXXXXXXXXXXXXXXXXXXX$$$$$.....222222222244444     ",
"     444442222222222.....$$$$$XXXXXXXXXXXXXXXXXXXX$$$$$.....222222222244444     ",
"     444442222222222.....$$$$$XXXXXXXXXXXXXXXXXXXX$$$$$.....222222222244444     ",
"     444442222222222.....$$$$$XXXXXXXXXXXXXXXXXXXX$$$$$.....222222222244444     ",
"     444442222222222.....$$$$$XXXXXXXXXXXXXXXXXXXX$$$$$.....222222222244444     ",
"     444442222255555.....$$$$$$$$$$$$$$$$$$$$$$$$$$$$$$.....555552222244444     ",
"     444442222255555.....$$$$$$$$$$$$$$$$$$$$$$$$$$$$$$.....555552222244444     ",
"     444442222255555.....$$$$$$$$$$$$$$$$$$$$$$$$$$$$$$.....555552222244444     ",
"     444442222255555.....$$$$$$$$$$$$$$$$$$$$$$$$$$$$$$.....555552222244444     ",
"     444442222255555.....$$$$$$$$$$$$$$$$$$$$$$$$$$$$$$.....555552222244444     ",
"          ...............@@@@@$$$$$$$$$$$$$$$$$$$$@@@@@...............          ",
"          ...............@@@@@$$$$$$$$$$$$$$$$$$$$@@@@@...............          ",
"          ...............@@@@@$$$$$$$$$$$$$$$$$$$$@@@@@...............          ",
"          ...............@@@@@$$$$$$$$$$$$$$$$$$$$@@@@@...............          ",
"          ...............@@@@@$$$$$$$$$$$$$$$$$$$$@@@@@...............          "
};
