/* XPM */
static char *efa6f43bd91540dbf6a7051a07715361wRjr7oqph2zTknVK[] = {
/* columns rows colors chars-per-pixel */
"80 80 17 1 ",
"  c None",
". c #040404",
"X c #007966",
"o c #00B49D",
"O c #433416",
"+ c #002E27",
"@ c #866114",
"# c #004F43",
"$ c #6E6C68",
"% c #C8C1B3",
"& c #BFB7A6",
"* c gray91",
"= c #F7D099",
"- c #AA5A33",
"; c #F6A954",
": c #84482A",
"> c #D97F40",
/* pixels */
"                                   ..........                                   ",
"                                   ..........                                   ",
"                                   ..........                                   ",
"                                   ..........                                   ",
"                                   ..........                                   ",
"                              .....XXXXXXXXXX.....                              ",
"                              .....XXXXXXXXXX.....                              ",
"                              .....XXXXXXXXXX.....                              ",
"                              .....XXXXXXXXXX.....                              ",
"                              .....XXXXXXXXXX.....                              ",
"                         .....XXXXXooooooooooXXXXX.....                         ",
"                         .....XXXXXooooooooooXXXXX.....                         ",
"                         .....XXXXXooooooooooXXXXX.....                         ",
"                         .....XXXXXooooooooooXXXXX.....                         ",
"                         .....XXXXXooooooooooXXXXX.....                         ",
"               ..........OOOOOXXXXXooooooooooXXXXXOOOOO..........               ",
"               ..........OOOOOXXXXXooooooooooXXXXXOOOOO..........               ",
"               ..........OOOOOXXXXXooooooooooXXXXXOOOOO..........               ",
"               ..........OOOOOXXXXXooooooooooXXXXXOOOOO..........               ",
"               ..........OOOOOXXXXXooooooooooXXXXXOOOOO..........               ",
"          .....++++++++++@@@@@#####XXXXXXXXXX#####@@@@@++++++++++.....          ",
"          .....++++++++++@@@@@#####XXXXXXXXXX#####@@@@@++++++++++.....          ",
"          .....++++++++++@@@@@#####XXXXXXXXXX#####@@@@@++++++++++.....          ",
"          .....++++++++++@@@@@#####XXXXXXXXXX#####@@@@@++++++++++.....          ",
"          .....++++++++++@@@@@#####XXXXXXXXXX#####@@@@@++++++++++.....          ",
"     .....++++++++++#####OOOOO$$$$$%%%%%%%%%%$$$$$OOOOO#####++++++++++.....     ",
"     .....++++++++++#####OOOOO$$$$$%%%%%%%%%%$$$$$OOOOO#####++++++++++.....     ",
"     .....++++++++++#####OOOOO$$$$$%%%%%%%%%%$$$$$OOOOO#####++++++++++.....     ",
"     .....++++++++++#####OOOOO$$$$$%%%%%%%%%%$$$$$OOOOO#####++++++++++.....     ",
"     .....++++++++++#####OOOOO$$$$$%%%%%%%%%%$$$$$OOOOO#####++++++++++.....     ",
"     .....####################&&&&&OOOOOOOOOO&&&&&####################.....     ",
"     .....####################&&&&&OOOOOOOOOO&&&&&####################.....     ",
"     .....####################&&&&&OOOOOOOOOO&&&&&####################.....     ",
"     .....####################&&&&&OOOOOOOOOO&&&&&####################.....     ",
"     .....####################&&&&&OOOOOOOOOO&&&&&####################.....     ",
"     .....#####XXXXXXXXXXXXXXX$$$$$&&&&&&&&&&$$$$$XXXXXXXXXXXXXXX#####.....     ",
"     .....#####XXXXXXXXXXXXXXX$$$$$&&&&&&&&&&$$$$$XXXXXXXXXXXXXXX#####.....     ",
"     .....#####XXXXXXXXXXXXXXX$$$$$&&&&&&&&&&$$$$$XXXXXXXXXXXXXXX#####.....     ",
"     .....#####XXXXXXXXXXXXXXX$$$$$&&&&&&&&&&$$$$$XXXXXXXXXXXXXXX#####.....     ",
"     .....#####XXXXXXXXXXXXXXX$$$$$&&&&&&&&&&$$$$$XXXXXXXXXXXXXXX#####.....     ",
"     .....+++++#####XXXXXooooooooooooooooooooooooooooooXXXXX#####+++++.....     ",
"     .....+++++#####XXXXXooooooooooooooooooooooooooooooXXXXX#####+++++.....     ",
"     .....+++++#####XXXXXooooooooooooooooooooooooooooooXXXXX#####+++++.....     ",
"     .....+++++#####XXXXXooooooooooooooooooooooooooooooXXXXX#####+++++.....     ",
"     .....+++++#####XXXXXooooooooooooooooooooooooooooooXXXXX#####+++++.....     ",
"          .....++++++++++##############################++++++++++.....          ",
"          .....++++++++++##############################++++++++++.....          ",
"          .....++++++++++##############################++++++++++.....          ",
"          .....++++++++++##############################++++++++++.....          ",
"          .....++++++++++##############################++++++++++.....          ",
"               ..........*****.....==========.....*****..........               ",
"               ..........*****.....==========.....*****..........               ",
"               ..........*****.....==========.....*****..........               ",
"               ..........*****.....==========.....*****..........               ",
"               ..........*****.....==========.....*****..........               ",
"               .....XXXXX-----;;;;;;;;;;;;;;;;;;;;-----XXXXX.....               ",
"               .....XXXXX-----;;;;;;;;;;;;;;;;;;;;-----XXXXX.....               ",
"               .....XXXXX-----;;;;;;;;;;;;;;;;;;;;-----XXXXX.....               ",
"               .....XXXXX-----;;;;;;;;;;;;;;;;;;;;-----XXXXX.....               ",
"               .....XXXXX-----;;;;;;;;;;;;;;;;;;;;-----XXXXX.....               ",
"          .....XXXXXXXXXXXXXXX::::::::::::::::::::XXXXXXXXXXXXXXX.....          ",
"          .....XXXXXXXXXXXXXXX::::::::::::::::::::XXXXXXXXXXXXXXX.....          ",
"          .....XXXXXXXXXXXXXXX::::::::::::::::::::XXXXXXXXXXXXXXX.....          ",
"          .....XXXXXXXXXXXXXXX::::::::::::::::::::XXXXXXXXXXXXXXX.....          ",
"          .....XXXXXXXXXXXXXXX::::::::::::::::::::XXXXXXXXXXXXXXX.....          ",
"     .....;;;;;;;;;;.....#####XXXXXXXXXXXXXXXXXXXX#####.....;;;;;;;;;;.....     ",
"     .....;;;;;;;;;;.....#####XXXXXXXXXXXXXXXXXXXX#####.....;;;;;;;;;;.....     ",
"     .....;;;;;;;;;;.....#####XXXXXXXXXXXXXXXXXXXX#####.....;;;;;;;;;;.....     ",
"     .....;;;;;;;;;;.....#####XXXXXXXXXXXXXXXXXXXX#####.....;;;;;;;;;;.....     ",
"     .....;;;;;;;;;;.....#####XXXXXXXXXXXXXXXXXXXX#####.....;;;;;;;;;;.....     ",
"     .....;;;;;>>>>>.....##############################.....>>>>>;;;;;.....     ",
"     .....;;;;;>>>>>.....##############################.....>>>>>;;;;;.....     ",
"     .....;;;;;>>>>>.....##############################.....>>>>>;;;;;.....     ",
"     .....;;;;;>>>>>.....##############################.....>>>>>;;;;;.....     ",
"     .....;;;;;>>>>>.....##############################.....>>>>>;;;;;.....     ",
"          ...............+++++####################+++++...............          ",
"          ...............+++++####################+++++...............          ",
"          ...............+++++####################+++++...............          ",
"          ...............+++++####################+++++...............          ",
"          ...............+++++####################+++++...............          "
};
